<svg width="64" height="64" viewBox="0 0 64 64" fill="none" xmlns="http://www.w3.org/2000/svg">
  <rect width="64" height="64" rx="14" fill="#0f172a"/>
  <defs>
    <linearGradient id="f-main" x1="32" y1="10" x2="32" y2="54" gradientUnits="userSpaceOnUse">
      <stop offset="0%" stop-color="#FCD34D"/>
      <stop offset="100%" stop-color="#B45309"/>
    </linearGradient>
    <linearGradient id="f-face" x1="32" y1="22" x2="32" y2="54" gradientUnits="userSpaceOnUse">
      <stop offset="0%" stop-color="#FEF3C7" stop-opacity="0.45"/>
      <stop offset="100%" stop-color="#F59E0B" stop-opacity="0.1"/>
    </linearGradient>
    <linearGradient id="f-sec" x1="14" y1="30" x2="14" y2="54" gradientUnits="userSpaceOnUse">
      <stop offset="0%" stop-color="#FBBF24" stop-opacity="0.65"/>
      <stop offset="100%" stop-color="#92400E" stop-opacity="0.45"/>
    </linearGradient>
  </defs>
  <!-- Secondary peak -->
  <polygon points="14,30 22,54 6,54" fill="url(#f-sec)"/>
  <polygon points="14,30 18,54 10,54" fill="rgba(254,243,199,0.1)"/>
  <!-- Main peak -->
  <polygon points="32,10 54,54 10,54" fill="url(#f-main)"/>
  <polygon points="32,10 43,54 21,54" fill="url(#f-face)"/>
  <!-- Ridge -->
  <line x1="32" y1="10" x2="32" y2="54" stroke="rgba(254,243,199,0.18)" stroke-width="0.8"/>
  <!-- Star sparkle at summit -->
  <path d="M32,6 L33.1,9.4 L36.8,9.4 L33.9,11.5 L34.9,14.9 L32,12.8 L29.1,14.9 L30.1,11.5 L27.2,9.4 L30.9,9.4 Z" fill="#FEF9C3" opacity="0.95"/>
</svg>
